<?xml version="1.0" encoding="utf-8"?>
<!-- Generator: Adobe Illustrator 19.1.0, SVG Export Plug-In . SVG Version: 6.00 Build 0)  -->
<!DOCTYPE svg PUBLIC "-//W3C//DTD SVG 1.1//EN" "http://www.w3.org/Graphics/SVG/1.1/DTD/svg11.dtd">
<svg version="1.1" xmlns="http://www.w3.org/2000/svg" xmlns:xlink="http://www.w3.org/1999/xlink" x="0px" y="0px"
	 viewBox="0 0 24 24" style="enable-background:new 0 0 24 24;" xml:space="preserve">
<style type="text/css">
	.st0{fill:#ADB4B7;}
</style>
<g id="Layer_2">
</g>
<g id="Layer_1">
	<g>
		<g>
			<path class="st0" d="M1.4,14c0-1.4,0-2.7,0-4.1c7.1,0,14.2,0,21.5,0c0,1.3,0,2.7,0,4.1C15.7,14,8.6,14,1.4,14z"/>
			<path class="st0" d="M14.2,1.2c0,1.4,0,2.6,0,3.9c-4.2,0-8.4,0-12.7,0c0-1.2,0-2.5,0-3.9C5.6,1.2,9.8,1.2,14.2,1.2z"/>
			<path class="st0" d="M14.5,22.8c0-1.4,0-2.7,0-4.1c2.8,0,5.6,0,8.4,0c0,1.4,0,2.6,0,4.1C20.2,22.8,17.5,22.8,14.5,22.8z"/>
			<path class="st0" d="M1.3,22.8c0-1.5,0-2.7,0-4.1c2.8,0,5.5,0,8.4,0c0,1.2,0,2.6,0,4.1C7,22.8,4.3,22.8,1.3,22.8z"/>
			<path class="st0" d="M19,5.1c0-1.3,0-2.5,0-3.8c1.3,0,2.5,0,3.9,0c0,1.2,0,2.4,0,3.8C21.7,5.1,20.5,5.1,19,5.1z"/>
		</g>
	</g>
</g>
</svg>
