<?xml version="1.0" encoding="utf-8"?>
<!-- Generator: Adobe Illustrator 19.1.0, SVG Export Plug-In . SVG Version: 6.00 Build 0)  -->
<!DOCTYPE svg PUBLIC "-//W3C//DTD SVG 1.1//EN" "http://www.w3.org/Graphics/SVG/1.1/DTD/svg11.dtd">
<svg version="1.1" id="Layer_1" xmlns="http://www.w3.org/2000/svg" xmlns:xlink="http://www.w3.org/1999/xlink" x="0px" y="0px"
	 viewBox="0 0 128 128" style="enable-background:new 0 0 128 128;" xml:space="preserve">
<style type="text/css">
	.st0{opacity:0.6;fill:#D1D1D1;}
	.st1{fill:#242628;}
	.st2{fill:#ADB4B7;}
</style>
<path class="st0" d="M120.7,128.2H11.5c-4,0-7.3-3.2-7.3-7.3V11.7c0-4,3.2-7.3,7.3-7.3h109.2c4,0,7.3,3.2,7.3,7.3V121
	C128,125,124.8,128.2,120.7,128.2z"/>
<path class="st1" d="M117.6,123.9H6.1c-3.4,0-6.1-2.7-6.1-6.1V6.2c0-3.4,2.7-6.1,6.1-6.1h111.5c3.4,0,6.1,2.7,6.1,6.1v111.5
	C123.7,121.1,121,123.9,117.6,123.9z"/>
<g>
	<g>
		<path class="st2" d="M20.9,68.2c0-5.4,0-10.4,0-16.1c27.7,0,55.3,0,83.7,0c0,5.2,0,10.4,0,16.1C76.6,68.2,49,68.2,20.9,68.2z"/>
		<path class="st2" d="M70.5,18.4c0,5.6,0,10,0,15c-16.4,0-32.5,0-49.4,0c0-4.7,0-9.5,0-15C37.5,18.4,53.6,18.4,70.5,18.4z"/>
		<path class="st2" d="M71.9,102.2c0-5.6,0-10.5,0-15.9c11.1,0,21.7,0,32.8,0c0,5.3,0,10.2,0,15.9C94.2,102.2,83.6,102.2,71.9,102.2
			z"/>
		<path class="st2" d="M20.6,102.3c0-5.7,0-10.3,0-15.8c10.7,0,21.3,0,32.7,0c0,4.8,0,9.9,0,15.8C42.7,102.3,32.1,102.3,20.6,102.3z
			"/>
		<path class="st2" d="M89.5,33.4c0-5.2,0-9.6,0-14.9c5.1,0,9.9,0,15.3,0c0,4.8,0,9.5,0,14.9C100.1,33.4,95.3,33.4,89.5,33.4z"/>
	</g>
</g>
</svg>
